<mxfile host="app.diagrams.net" modified="2021-05-13T02:13:28.471Z" agent="5.0 (Macintosh; Intel Mac OS X 10_15_7) AppleWebKit/537.36 (KHTML, like Gecko) Chrome/90.0.4430.93 Safari/537.36" etag="opX02xvdPQSOYmD7MlYt" version="14.6.12" type="github">
  <diagram id="R2lEEEUBdFMjLlhIrx00" name="Page-1">
    <mxGraphModel dx="1837" dy="1037" grid="1" gridSize="10" guides="1" tooltips="1" connect="0" arrows="1" fold="1" page="1" pageScale="1" pageWidth="1700" pageHeight="1100" background="#FFFFFF" backgroundImage="{&quot;src&quot;:&quot;https://image.shutterstock.com/z/stock-vector-a-bench-by-the-sea-seascape-sketch-236190847.jpg&quot;,&quot;width&quot;:&quot;1500&quot;,&quot;height&quot;:&quot;1207&quot;}" math="0" shadow="0" extFonts="Permanent Marker^https://fonts.googleapis.com/css?family=Permanent+Marker">
      <root>
        <mxCell id="0" />
        <mxCell id="1" parent="0" />
        <mxCell id="lSunpXwLb6LYgpx-9WlG-1" value="" style="whiteSpace=wrap;html=1;fillColor=#d5e8d4;strokeColor=#82b366;sketch=1;rounded=1;fillStyle=solid;gradientColor=#ffffff;fontSize=16;" vertex="1" parent="1">
          <mxGeometry x="1050" y="420" width="220" height="360" as="geometry" />
        </mxCell>
        <mxCell id="lSunpXwLb6LYgpx-9WlG-2" value="" style="whiteSpace=wrap;html=1;fillColor=#fff2cc;strokeColor=#d6b656;sketch=1;rounded=1;fillStyle=solid;gradientColor=#ffffff;shadow=1;fontSize=16;" vertex="1" parent="1">
          <mxGeometry x="310" y="650" width="270" height="340" as="geometry" />
        </mxCell>
        <mxCell id="lSunpXwLb6LYgpx-9WlG-3" value="" style="whiteSpace=wrap;html=1;fillColor=#dae8fc;strokeColor=#6c8ebf;sketch=1;rounded=1;fillStyle=solid;gradientColor=#ffffff;fontSize=16;" vertex="1" parent="1">
          <mxGeometry x="640" y="87.02999999999999" width="190" height="315.93" as="geometry" />
        </mxCell>
        <mxCell id="lSunpXwLb6LYgpx-9WlG-4" value="Courses" style="swimlane;fontStyle=0;childLayout=stackLayout;horizontal=1;startSize=26;horizontalStack=0;resizeParent=1;resizeParentMax=0;resizeLast=0;collapsible=1;marginBottom=0;sketch=1;rounded=1;fontFamily=Permanent Marker;fontSource=https%3A%2F%2Ffonts.googleapis.com%2Fcss%3Ffamily%3DPermanent%2BMarker;fontColor=#7EA6E0;fontSize=16;" vertex="1" parent="1">
          <mxGeometry x="656" y="107.02999999999999" width="159" height="270" as="geometry" />
        </mxCell>
        <mxCell id="lSunpXwLb6LYgpx-9WlG-5" value="courseID" style="text;strokeColor=none;fillColor=none;align=left;verticalAlign=top;spacingLeft=4;spacingRight=4;overflow=hidden;rotatable=0;points=[[0,0.5],[1,0.5]];portConstraint=eastwest;sketch=1;rounded=1;fontSize=16;" vertex="1" parent="lSunpXwLb6LYgpx-9WlG-4">
          <mxGeometry y="26" width="159" height="26" as="geometry" />
        </mxCell>
        <mxCell id="lSunpXwLb6LYgpx-9WlG-6" value="Requirements" style="text;strokeColor=none;fillColor=none;align=left;verticalAlign=top;spacingLeft=4;spacingRight=4;overflow=hidden;rotatable=0;points=[[0,0.5],[1,0.5]];portConstraint=eastwest;sketch=1;rounded=1;fontSize=16;" vertex="1" parent="lSunpXwLb6LYgpx-9WlG-4">
          <mxGeometry y="52" width="159" height="26" as="geometry" />
        </mxCell>
        <mxCell id="lSunpXwLb6LYgpx-9WlG-7" value="Credits" style="text;strokeColor=none;fillColor=none;align=left;verticalAlign=top;spacingLeft=4;spacingRight=4;overflow=hidden;rotatable=0;points=[[0,0.5],[1,0.5]];portConstraint=eastwest;sketch=1;rounded=1;fontSize=16;" vertex="1" parent="lSunpXwLb6LYgpx-9WlG-4">
          <mxGeometry y="78" width="159" height="26" as="geometry" />
        </mxCell>
        <mxCell id="lSunpXwLb6LYgpx-9WlG-28" value="Duration" style="text;strokeColor=none;fillColor=none;align=left;verticalAlign=top;spacingLeft=4;spacingRight=4;overflow=hidden;rotatable=0;points=[[0,0.5],[1,0.5]];portConstraint=eastwest;sketch=1;rounded=1;fontSize=16;" vertex="1" parent="lSunpXwLb6LYgpx-9WlG-4">
          <mxGeometry y="104" width="159" height="26" as="geometry" />
        </mxCell>
        <mxCell id="lSunpXwLb6LYgpx-9WlG-29" value="CourseName" style="text;strokeColor=none;fillColor=none;align=left;verticalAlign=top;spacingLeft=4;spacingRight=4;overflow=hidden;rotatable=0;points=[[0,0.5],[1,0.5]];portConstraint=eastwest;sketch=1;rounded=1;fontSize=16;" vertex="1" parent="lSunpXwLb6LYgpx-9WlG-4">
          <mxGeometry y="130" width="159" height="26" as="geometry" />
        </mxCell>
        <mxCell id="lSunpXwLb6LYgpx-9WlG-35" value="CourseNumber" style="text;strokeColor=none;fillColor=none;align=left;verticalAlign=top;spacingLeft=4;spacingRight=4;overflow=hidden;rotatable=0;points=[[0,0.5],[1,0.5]];portConstraint=eastwest;sketch=1;rounded=1;fontSize=16;" vertex="1" parent="lSunpXwLb6LYgpx-9WlG-4">
          <mxGeometry y="156" width="159" height="26" as="geometry" />
        </mxCell>
        <mxCell id="lSunpXwLb6LYgpx-9WlG-38" value="subjectName" style="text;strokeColor=none;fillColor=none;align=left;verticalAlign=top;spacingLeft=4;spacingRight=4;overflow=hidden;rotatable=0;points=[[0,0.5],[1,0.5]];portConstraint=eastwest;sketch=1;rounded=1;fontSize=16;" vertex="1" parent="lSunpXwLb6LYgpx-9WlG-4">
          <mxGeometry y="182" width="159" height="26" as="geometry" />
        </mxCell>
        <mxCell id="lSunpXwLb6LYgpx-9WlG-65" value="location" style="text;strokeColor=none;fillColor=none;align=left;verticalAlign=top;spacingLeft=4;spacingRight=4;overflow=hidden;rotatable=0;points=[[0,0.5],[1,0.5]];portConstraint=eastwest;sketch=1;rounded=1;fontSize=16;" vertex="1" parent="lSunpXwLb6LYgpx-9WlG-4">
          <mxGeometry y="208" width="159" height="26" as="geometry" />
        </mxCell>
        <mxCell id="lSunpXwLb6LYgpx-9WlG-66" value="courseDescription" style="text;strokeColor=none;fillColor=none;align=left;verticalAlign=top;spacingLeft=4;spacingRight=4;overflow=hidden;rotatable=0;points=[[0,0.5],[1,0.5]];portConstraint=eastwest;sketch=1;rounded=1;fontSize=16;" vertex="1" parent="lSunpXwLb6LYgpx-9WlG-4">
          <mxGeometry y="234" width="159" height="36" as="geometry" />
        </mxCell>
        <mxCell id="lSunpXwLb6LYgpx-9WlG-10" value="Students" style="swimlane;fontStyle=1;childLayout=stackLayout;horizontal=1;startSize=26;horizontalStack=0;resizeParent=1;resizeParentMax=0;resizeLast=0;collapsible=1;marginBottom=0;sketch=1;rounded=1;fontFamily=Permanent Marker;fontSource=https%3A%2F%2Ffonts.googleapis.com%2Fcss%3Ffamily%3DPermanent%2BMarker;fontColor=#97D077;fontSize=16;whiteSpace=wrap;" vertex="1" parent="1">
          <mxGeometry x="1066" y="457" width="190" height="300" as="geometry" />
        </mxCell>
        <mxCell id="lSunpXwLb6LYgpx-9WlG-11" value="studentID" style="text;strokeColor=none;fillColor=none;align=left;verticalAlign=top;spacingLeft=4;spacingRight=4;overflow=hidden;rotatable=0;points=[[0,0.5],[1,0.5]];portConstraint=eastwest;sketch=1;rounded=1;fontSize=16;" vertex="1" parent="lSunpXwLb6LYgpx-9WlG-10">
          <mxGeometry y="26" width="190" height="26" as="geometry" />
        </mxCell>
        <mxCell id="lSunpXwLb6LYgpx-9WlG-12" value="firstName" style="text;strokeColor=none;fillColor=none;align=left;verticalAlign=top;spacingLeft=4;spacingRight=4;overflow=hidden;rotatable=0;points=[[0,0.5],[1,0.5]];portConstraint=eastwest;sketch=1;rounded=1;fontSize=16;" vertex="1" parent="lSunpXwLb6LYgpx-9WlG-10">
          <mxGeometry y="52" width="190" height="26" as="geometry" />
        </mxCell>
        <mxCell id="lSunpXwLb6LYgpx-9WlG-13" value="lastName" style="text;strokeColor=none;fillColor=none;align=left;verticalAlign=top;spacingLeft=4;spacingRight=4;overflow=hidden;rotatable=0;points=[[0,0.5],[1,0.5]];portConstraint=eastwest;sketch=1;rounded=1;fontSize=16;" vertex="1" parent="lSunpXwLb6LYgpx-9WlG-10">
          <mxGeometry y="78" width="190" height="26" as="geometry" />
        </mxCell>
        <mxCell id="lSunpXwLb6LYgpx-9WlG-32" value="D.o.B" style="text;strokeColor=none;fillColor=none;align=left;verticalAlign=top;spacingLeft=4;spacingRight=4;overflow=hidden;rotatable=0;points=[[0,0.5],[1,0.5]];portConstraint=eastwest;sketch=1;rounded=1;fontSize=16;" vertex="1" parent="lSunpXwLb6LYgpx-9WlG-10">
          <mxGeometry y="104" width="190" height="26" as="geometry" />
        </mxCell>
        <mxCell id="lSunpXwLb6LYgpx-9WlG-33" value="OverallGPA" style="text;strokeColor=none;fillColor=none;align=left;verticalAlign=top;spacingLeft=4;spacingRight=4;overflow=hidden;rotatable=0;points=[[0,0.5],[1,0.5]];portConstraint=eastwest;sketch=1;rounded=1;fontSize=16;" vertex="1" parent="lSunpXwLb6LYgpx-9WlG-10">
          <mxGeometry y="130" width="190" height="26" as="geometry" />
        </mxCell>
        <mxCell id="lSunpXwLb6LYgpx-9WlG-34" value="Grade" style="text;strokeColor=none;fillColor=none;align=left;verticalAlign=top;spacingLeft=4;spacingRight=4;overflow=hidden;rotatable=0;points=[[0,0.5],[1,0.5]];portConstraint=eastwest;sketch=1;rounded=1;fontSize=16;" vertex="1" parent="lSunpXwLb6LYgpx-9WlG-10">
          <mxGeometry y="156" width="190" height="26" as="geometry" />
        </mxCell>
        <mxCell id="lSunpXwLb6LYgpx-9WlG-36" value="studentAddress" style="text;strokeColor=none;fillColor=none;align=left;verticalAlign=top;spacingLeft=4;spacingRight=4;overflow=hidden;rotatable=0;points=[[0,0.5],[1,0.5]];portConstraint=eastwest;sketch=1;rounded=1;fontSize=16;" vertex="1" parent="lSunpXwLb6LYgpx-9WlG-10">
          <mxGeometry y="182" width="190" height="26" as="geometry" />
        </mxCell>
        <mxCell id="lSunpXwLb6LYgpx-9WlG-67" value="studentEmail" style="text;strokeColor=none;fillColor=none;align=left;verticalAlign=top;spacingLeft=4;spacingRight=4;overflow=hidden;rotatable=0;points=[[0,0.5],[1,0.5]];portConstraint=eastwest;sketch=1;rounded=1;fontSize=16;" vertex="1" parent="lSunpXwLb6LYgpx-9WlG-10">
          <mxGeometry y="208" width="190" height="26" as="geometry" />
        </mxCell>
        <mxCell id="lSunpXwLb6LYgpx-9WlG-68" value="SSN" style="text;strokeColor=none;fillColor=none;align=left;verticalAlign=top;spacingLeft=4;spacingRight=4;overflow=hidden;rotatable=0;points=[[0,0.5],[1,0.5]];portConstraint=eastwest;sketch=1;rounded=1;fontSize=16;" vertex="1" parent="lSunpXwLb6LYgpx-9WlG-10">
          <mxGeometry y="234" width="190" height="26" as="geometry" />
        </mxCell>
        <mxCell id="lSunpXwLb6LYgpx-9WlG-37" value="gender" style="text;strokeColor=none;fillColor=none;align=left;verticalAlign=top;spacingLeft=4;spacingRight=4;overflow=hidden;rotatable=0;points=[[0,0.5],[1,0.5]];portConstraint=eastwest;sketch=1;rounded=1;fontSize=16;" vertex="1" parent="lSunpXwLb6LYgpx-9WlG-10">
          <mxGeometry y="260" width="190" height="40" as="geometry" />
        </mxCell>
        <mxCell id="lSunpXwLb6LYgpx-9WlG-15" value="Instructors" style="swimlane;fontStyle=0;childLayout=stackLayout;horizontal=1;startSize=26;horizontalStack=0;resizeParent=1;resizeParentMax=0;resizeLast=0;collapsible=1;marginBottom=0;sketch=1;rounded=1;fontFamily=Permanent Marker;fontSource=https%3A%2F%2Ffonts.googleapis.com%2Fcss%3Ffamily%3DPermanent%2BMarker;fontColor=#FFB570;fontSize=16;" vertex="1" parent="1">
          <mxGeometry x="331" y="669" width="233" height="290" as="geometry" />
        </mxCell>
        <mxCell id="lSunpXwLb6LYgpx-9WlG-16" value="instructorID" style="text;strokeColor=none;fillColor=none;align=left;verticalAlign=top;spacingLeft=4;spacingRight=4;overflow=hidden;rotatable=0;points=[[0,0.5],[1,0.5]];portConstraint=eastwest;sketch=1;rounded=1;fontSize=16;" vertex="1" parent="lSunpXwLb6LYgpx-9WlG-15">
          <mxGeometry y="26" width="233" height="26" as="geometry" />
        </mxCell>
        <mxCell id="lSunpXwLb6LYgpx-9WlG-17" value="firstName" style="text;strokeColor=none;fillColor=none;align=left;verticalAlign=top;spacingLeft=4;spacingRight=4;overflow=hidden;rotatable=0;points=[[0,0.5],[1,0.5]];portConstraint=eastwest;sketch=1;rounded=1;fontSize=16;" vertex="1" parent="lSunpXwLb6LYgpx-9WlG-15">
          <mxGeometry y="52" width="233" height="26" as="geometry" />
        </mxCell>
        <mxCell id="lSunpXwLb6LYgpx-9WlG-18" value="lastName" style="text;strokeColor=none;fillColor=none;align=left;verticalAlign=top;spacingLeft=4;spacingRight=4;overflow=hidden;rotatable=0;points=[[0,0.5],[1,0.5]];portConstraint=eastwest;sketch=1;rounded=1;fontSize=16;" vertex="1" parent="lSunpXwLb6LYgpx-9WlG-15">
          <mxGeometry y="78" width="233" height="26" as="geometry" />
        </mxCell>
        <mxCell id="lSunpXwLb6LYgpx-9WlG-39" value="emailAddress" style="text;strokeColor=none;fillColor=none;align=left;verticalAlign=top;spacingLeft=4;spacingRight=4;overflow=hidden;rotatable=0;points=[[0,0.5],[1,0.5]];portConstraint=eastwest;sketch=1;rounded=1;fontSize=16;" vertex="1" parent="lSunpXwLb6LYgpx-9WlG-15">
          <mxGeometry y="104" width="233" height="26" as="geometry" />
        </mxCell>
        <mxCell id="lSunpXwLb6LYgpx-9WlG-40" value="phoneNumber" style="text;strokeColor=none;fillColor=none;align=left;verticalAlign=top;spacingLeft=4;spacingRight=4;overflow=hidden;rotatable=0;points=[[0,0.5],[1,0.5]];portConstraint=eastwest;sketch=1;rounded=1;fontSize=16;" vertex="1" parent="lSunpXwLb6LYgpx-9WlG-15">
          <mxGeometry y="130" width="233" height="30" as="geometry" />
        </mxCell>
        <mxCell id="lSunpXwLb6LYgpx-9WlG-54" value="hireDate" style="text;strokeColor=none;fillColor=none;align=left;verticalAlign=top;spacingLeft=4;spacingRight=4;overflow=hidden;rotatable=0;points=[[0,0.5],[1,0.5]];portConstraint=eastwest;sketch=1;rounded=1;fontSize=16;" vertex="1" parent="lSunpXwLb6LYgpx-9WlG-15">
          <mxGeometry y="160" width="233" height="30" as="geometry" />
        </mxCell>
        <mxCell id="lSunpXwLb6LYgpx-9WlG-55" value="payRate" style="text;strokeColor=none;fillColor=none;align=left;verticalAlign=top;spacingLeft=4;spacingRight=4;overflow=hidden;rotatable=0;points=[[0,0.5],[1,0.5]];portConstraint=eastwest;sketch=1;rounded=1;fontSize=16;" vertex="1" parent="lSunpXwLb6LYgpx-9WlG-15">
          <mxGeometry y="190" width="233" height="30" as="geometry" />
        </mxCell>
        <mxCell id="lSunpXwLb6LYgpx-9WlG-69" value="D.o.B." style="text;strokeColor=none;fillColor=none;align=left;verticalAlign=top;spacingLeft=4;spacingRight=4;overflow=hidden;rotatable=0;points=[[0,0.5],[1,0.5]];portConstraint=eastwest;sketch=1;rounded=1;fontSize=16;" vertex="1" parent="lSunpXwLb6LYgpx-9WlG-15">
          <mxGeometry y="220" width="233" height="30" as="geometry" />
        </mxCell>
        <mxCell id="lSunpXwLb6LYgpx-9WlG-56" value="gender" style="text;strokeColor=none;fillColor=none;align=left;verticalAlign=top;spacingLeft=4;spacingRight=4;overflow=hidden;rotatable=0;points=[[0,0.5],[1,0.5]];portConstraint=eastwest;sketch=1;rounded=1;fontSize=16;" vertex="1" parent="lSunpXwLb6LYgpx-9WlG-15">
          <mxGeometry y="250" width="233" height="40" as="geometry" />
        </mxCell>
        <mxCell id="lSunpXwLb6LYgpx-9WlG-23" value="" style="edgeStyle=entityRelationEdgeStyle;fontSize=12;html=1;endArrow=ERzeroToMany;startArrow=none;jumpStyle=none;curved=1;exitX=1;exitY=0.5;exitDx=0;exitDy=0;entryX=0;entryY=1;entryDx=0;entryDy=0;sketch=1;strokeWidth=3;strokeColor=#C3ABD0;" edge="1" parent="1" source="lSunpXwLb6LYgpx-9WlG-44" target="lSunpXwLb6LYgpx-9WlG-3">
          <mxGeometry width="100" height="100" relative="1" as="geometry">
            <mxPoint x="571.25" y="485" as="sourcePoint" />
            <mxPoint x="526.25" y="410" as="targetPoint" />
          </mxGeometry>
        </mxCell>
        <mxCell id="lSunpXwLb6LYgpx-9WlG-27" value="" style="edgeStyle=entityRelationEdgeStyle;fontSize=12;html=1;endArrow=ERoneToMany;startArrow=none;entryX=1;entryY=0.5;entryDx=0;entryDy=0;exitX=0;exitY=0.5;exitDx=0;exitDy=0;sketch=1;strokeWidth=3;strokeColor=#C3ABD0;" edge="1" parent="1" source="lSunpXwLb6LYgpx-9WlG-41" target="lSunpXwLb6LYgpx-9WlG-3">
          <mxGeometry width="100" height="100" relative="1" as="geometry">
            <mxPoint x="721.25" y="160" as="sourcePoint" />
            <mxPoint x="846.25" y="260" as="targetPoint" />
          </mxGeometry>
        </mxCell>
        <mxCell id="lSunpXwLb6LYgpx-9WlG-41" value="" style="rhombus;whiteSpace=wrap;html=1;strokeWidth=2;fillWeight=-1;hachureGap=8;fillStyle=hachure;sketch=1;rounded=1;fontFamily=Permanent Marker;fontSource=https%3A%2F%2Ffonts.googleapis.com%2Fcss%3Ffamily%3DPermanent%2BMarker;fontColor=#FFB570;fillColor=#000000;fontSize=11;" vertex="1" parent="1">
          <mxGeometry x="890" y="220" width="300" height="150" as="geometry" />
        </mxCell>
        <mxCell id="lSunpXwLb6LYgpx-9WlG-42" value="" style="edgeStyle=entityRelationEdgeStyle;fontSize=12;html=1;endArrow=none;startArrow=ERmandOne;entryX=1;entryY=0.5;entryDx=0;entryDy=0;exitX=0.75;exitY=0;exitDx=0;exitDy=0;sketch=1;strokeWidth=3;strokeColor=#C3ABD0;" edge="1" parent="1" source="lSunpXwLb6LYgpx-9WlG-1" target="lSunpXwLb6LYgpx-9WlG-41">
          <mxGeometry width="100" height="100" relative="1" as="geometry">
            <mxPoint x="861.25" y="30" as="sourcePoint" />
            <mxPoint x="591.25" y="110" as="targetPoint" />
          </mxGeometry>
        </mxCell>
        <mxCell id="lSunpXwLb6LYgpx-9WlG-43" value="&lt;font color=&quot;#000000&quot; style=&quot;font-size: 16px&quot;&gt;Enrolled &amp;amp; &lt;br&gt;Generating Grades&lt;/font&gt;" style="text;strokeColor=none;html=1;fontSize=11;fontStyle=1;verticalAlign=middle;align=center;rounded=1;sketch=1;fontFamily=Permanent Marker;fontSource=https%3A%2F%2Ffonts.googleapis.com%2Fcss%3Ffamily%3DPermanent%2BMarker;fontColor=#FFB570;fillColor=#ffffff;fillStyle=auto;" vertex="1" parent="1">
          <mxGeometry x="950" y="264" width="170" height="60" as="geometry" />
        </mxCell>
        <mxCell id="lSunpXwLb6LYgpx-9WlG-44" value="" style="rhombus;whiteSpace=wrap;html=1;rounded=1;fontFamily=Permanent Marker;fontSource=https%3A%2F%2Ffonts.googleapis.com%2Fcss%3Ffamily%3DPermanent%2BMarker;fontColor=#FFB570;strokeWidth=2;fillColor=#000000;sketch=1;fillWeight=-1;hachureGap=8;fillStyle=hachure;" vertex="1" parent="1">
          <mxGeometry x="370" y="430" width="270" height="130" as="geometry" />
        </mxCell>
        <mxCell id="lSunpXwLb6LYgpx-9WlG-46" value="" style="edgeStyle=entityRelationEdgeStyle;fontSize=12;html=1;endArrow=none;startArrow=ERmandOne;jumpStyle=none;curved=1;exitX=1;exitY=0;exitDx=0;exitDy=0;entryX=0.5;entryY=1;entryDx=0;entryDy=0;sketch=1;strokeWidth=3;strokeColor=#C3ABD0;" edge="1" parent="1" target="lSunpXwLb6LYgpx-9WlG-44">
          <mxGeometry width="100" height="100" relative="1" as="geometry">
            <mxPoint x="531.25" y="660" as="sourcePoint" />
            <mxPoint x="441.25" y="550" as="targetPoint" />
          </mxGeometry>
        </mxCell>
        <mxCell id="lSunpXwLb6LYgpx-9WlG-47" value="&lt;font color=&quot;#000000&quot; style=&quot;font-size: 20px;&quot;&gt;Plans &amp;amp; Instructs&lt;/font&gt;" style="whiteSpace=wrap;html=1;rounded=1;fontFamily=Permanent Marker;fontSource=https%3A%2F%2Ffonts.googleapis.com%2Fcss%3Ffamily%3DPermanent%2BMarker;fontSize=20;fontColor=#FFB570;fontStyle=1;strokeColor=none;sketch=1;" vertex="1" parent="1">
          <mxGeometry x="428.75" y="464.06999999999994" width="142.5" height="61.87" as="geometry" />
        </mxCell>
      </root>
    </mxGraphModel>
  </diagram>
</mxfile>
